{
  "asset": {
    "version": "2.0",
    "generator": "Sketchup glTF Exporter v1.2.6 by Centaur"
  },
  "scene": 0,
  "scenes": [
    {
      "nodes": [
        0
      ]
    }
  ],
  "samplers": [
    {
    }
  ],
  "nodes": [
    {
      "name": "root",
      "mesh": 0
    }
  ],
  "materials": [
    {
      "pbrMetallicRoughness": {
        "baseColorFactor": [
          0.2176,
          0.2176,
          0.2176,
          1.0
        ],
        "metallicFactor": 0.1,
        "roughnessFactor": 0.9
      },
      "name": "default material",
      "doubleSided": true
    }
  ],
  "meshes": [
    {
      "primitives": [
        {
          "attributes": {
            "POSITION": 0,
            "NORMAL": 1
          },
          "indices": 2,
          "mode": 4,
          "material": 0
        }
      ]
    }
  ],
  "accessors": [
    {
      "bufferView": 0,
      "componentType": 5126,
      "count": 1011,
      "type": "VEC3",
      "min": [
        -88.35850191003725,
        -0.002916040977293454,
        -1.2192372426523086
      ],
      "max": [
        2.3719166624323406e-05,
        131.4191005992544,
        48.15835953329803
      ]
    },
    {
      "bufferView": 1,
      "componentType": 5126,
      "count": 1011,
      "type": "VEC3",
      "min": [
        -0.9999999999999036,
        -0.9999999999999976,
        -0.9999999999998705
      ],
      "max": [
        0.9999999999999185,
        0.9999999999999989,
        0.9999999999999178
      ]
    },
    {
      "bufferView": 2,
      "componentType": 5123,
      "count": 1962,
      "type": "SCALAR"
    }
  ],
  "bufferViews": [
    {
      "buffer": 0,
      "byteLength": 12132,
      "target": 34962,
      "byteStride": 12
    },
    {
      "buffer": 0,
      "byteOffset": 12132,
      "byteLength": 12132,
      "target": 34962,
      "byteStride": 12
    },
    {
      "buffer": 0,
      "byteOffset": 24264,
      "byteLength": 3924,
      "target": 34963
    }
  ],
  "buffers": [
    {
      "uri": "data:application/octet-stream;base64,",
      "byteLength": 28188
    }
  ]
}